<svg xmlns="http://www.w3.org/2000/svg" width="640" height="360" viewBox="0 0 640 360">
  <rect width="640" height="360" fill="#fff4e3"/>

  <!-- decorative candy tiles, one per corner; sparkles fill the mid-gutters -->
  
  <g transform="rotate(-10 72 76)">
    <rect x="42" y="51" width="60" height="60" rx="16.8" fill="#221a33"/>
    <rect x="42" y="46" width="60" height="60" rx="16.8" fill="#2fd180" stroke="#221a33" stroke-width="5"/>
    <path d="M54,52 L99.6,76 L54,100 Z" fill="#ffffff"/>
  </g>
  
  <g transform="rotate(9 567 71)">
    <rect x="538" y="47" width="58" height="58" rx="16.240000000000002" fill="#221a33"/>
    <rect x="538" y="42" width="58" height="58" rx="16.240000000000002" fill="#c9b6ff" stroke="#221a33" stroke-width="5"/>
    <path d="M567,95.012 C514.8,58.994 551.34,30.179599999999994 567,61.395199999999996 C582.66,30.179599999999994 619.2,58.994 567,95.012 Z" fill="#ff4d6d"/>
  </g>
  
  <g transform="rotate(8 70 280)">
    <rect x="40" y="255" width="60" height="60" rx="16.8" fill="#221a33"/>
    <rect x="40" y="250" width="60" height="60" rx="16.8" fill="#4d7cff" stroke="#221a33" stroke-width="5"/>
    <path d="M70.00,259.60L75.29,272.72L89.40,273.70L78.56,282.78L81.99,296.50L70.00,289.00L58.01,296.50L61.44,282.78L50.60,273.70L64.71,272.72Z" fill="#ffffff"/>
  </g>
  
  <g transform="rotate(-8 571 281)">
    <rect x="540" y="255" width="62" height="62" rx="17.360000000000003" fill="#221a33"/>
    <rect x="540" y="250" width="62" height="62" rx="17.360000000000003" fill="#ffc940" stroke="#221a33" stroke-width="5"/>
    <circle cx="571" cy="281" r="18.599999999999998" fill="none" stroke="#221a33" stroke-width="6.2"/><circle cx="571" cy="281" r="6.2" fill="#221a33"/>
  </g>
  <path d="M300.00,43.00L302.76,53.24L313.00,56.00L302.76,58.76L300.00,69.00L297.24,58.76L287.00,56.00L297.24,53.24Z" fill="#221a33"/>
  <path d="M612.00,156.00L614.55,165.45L624.00,168.00L614.55,170.55L612.00,180.00L609.45,170.55L600.00,168.00L609.45,165.45Z" fill="#4d7cff"/>
  <path d="M158.00,230.00L160.12,237.88L168.00,240.00L160.12,242.12L158.00,250.00L155.88,242.12L148.00,240.00L155.88,237.88Z" fill="#ff4d6d"/>
  <path d="M498.00,229.00L500.33,237.67L509.00,240.00L500.33,242.33L498.00,251.00L495.67,242.33L487.00,240.00L495.67,237.67Z" fill="#2fd180"/>

  <!-- lightning token tile -->
  <rect x="84" y="119" width="92" height="92" rx="26" fill="#221a33"/>
  <rect x="84" y="112" width="92" height="92" rx="26" fill="#ffc940" stroke="#221a33" stroke-width="7"/>
  <path d="M139.2,126.7L115.3,161.7L130.0,161.7L120.8,189.3L144.7,154.3L130.0,154.3Z" fill="#221a33" stroke="#221a33" stroke-width="6" stroke-linejoin="round"/>

  <!-- wordmark: pink fill, ink outline, hard ink drop -->
  <text x="200" y="186" font-family="Baloo 2" font-weight="800" font-size="92"
        fill="#221a33">superjam</text>
  <text x="200" y="180" font-family="Baloo 2" font-weight="800" font-size="92"
        fill="#ff4d6d" stroke="#221a33" stroke-width="6" paint-order="stroke" stroke-linejoin="round">superjam</text>

  <!-- tagline -->
  <text x="320" y="262" text-anchor="middle" font-family="Baloo 2" font-weight="700"
        font-size="30" fill="#221a33">make a jam. share the jam.</text>
</svg>