<svg xmlns="http://www.w3.org/2000/svg" width="1200" height="630" viewBox="0 0 1200 630">
  <rect width="1200" height="630" fill="#fff4e3"/>

  
  <g transform="rotate(-10 120 120)">
    <rect x="70" y="78" width="100" height="100" rx="28.000000000000004" fill="#221a33"/>
    <rect x="70" y="70" width="100" height="100" rx="28.000000000000004" fill="#2fd180" stroke="#221a33" stroke-width="7"/>
    <path d="M90,80 L166,120 L90,160 Z" fill="#ffffff"/>
  </g>
  
  <g transform="rotate(9 1078 112)">
    <rect x="1030" y="72" width="96" height="96" rx="26.880000000000003" fill="#221a33"/>
    <rect x="1030" y="64" width="96" height="96" rx="26.880000000000003" fill="#c9b6ff" stroke="#221a33" stroke-width="7"/>
    <path d="M1078,151.744 C991.6,92.128 1052.08,44.435199999999995 1078,96.10239999999999 C1103.92,44.435199999999995 1164.4,92.128 1078,151.744 Z" fill="#ff4d6d"/>
  </g>
  
  <g transform="rotate(8 128 490)">
    <rect x="78" y="448" width="100" height="100" rx="28.000000000000004" fill="#221a33"/>
    <rect x="78" y="440" width="100" height="100" rx="28.000000000000004" fill="#4d7cff" stroke="#221a33" stroke-width="7"/>
    <path d="M128.00,456.00L136.82,477.86L160.34,479.49L142.27,494.64L147.98,517.51L128.00,505.00L108.02,517.51L113.73,494.64L95.66,479.49L119.18,477.86Z" fill="#ffffff"/>
  </g>
  
  <g transform="rotate(-8 1080 500)">
    <rect x="1028" y="456" width="104" height="104" rx="29.120000000000005" fill="#221a33"/>
    <rect x="1028" y="448" width="104" height="104" rx="29.120000000000005" fill="#ffc940" stroke="#221a33" stroke-width="7"/>
    <circle cx="1080" cy="500" r="31.2" fill="none" stroke="#221a33" stroke-width="10.4"/><circle cx="1080" cy="500" r="10.4" fill="#221a33"/>
  </g>
  
  <g transform="rotate(11 938 544)">
    <rect x="900" y="513" width="76" height="76" rx="21.28" fill="#221a33"/>
    <rect x="900" y="506" width="76" height="76" rx="21.28" fill="#ff4d6d" stroke="#221a33" stroke-width="6"/>
    <path d="M938.00,518.16L943.37,538.63L963.84,544.00L943.37,549.37L938.00,569.84L932.63,549.37L912.16,544.00L932.63,538.63Z" fill="#ffffff"/>
  </g>
  <path d="M255.00,102.00L258.82,116.18L273.00,120.00L258.82,123.82L255.00,138.00L251.18,123.82L237.00,120.00L251.18,116.18Z" fill="#221a33"/>
  <path d="M958.00,134.00L961.39,146.61L974.00,150.00L961.39,153.39L958.00,166.00L954.61,153.39L942.00,150.00L954.61,146.61Z" fill="#4d7cff"/>
  <path d="M175.00,510.00L178.18,521.82L190.00,525.00L178.18,528.18L175.00,540.00L171.82,528.18L160.00,525.00L171.82,521.82Z" fill="#2fd180"/>
  <path d="M815.00,79.00L817.76,89.24L828.00,92.00L817.76,94.76L815.00,105.00L812.24,94.76L802.00,92.00L812.24,89.24Z" fill="#ff4d6d"/>

  <!-- lightning token tile -->
  <rect x="196" y="234" width="150" height="150" rx="42" fill="#221a33"/>
  <rect x="196" y="225" width="150" height="150" rx="42" fill="#ffc940" stroke="#221a33" stroke-width="11"/>
  <path d="M286.0,249.0L247.0,306.0L271.0,306.0L256.0,351.0L295.0,294.0L271.0,294.0Z" fill="#221a33" stroke="#221a33" stroke-width="9" stroke-linejoin="round"/>

  <!-- wordmark -->
  <text x="380" y="360" font-family="Baloo 2" font-weight="800" font-size="150" fill="#221a33">superjam</text>
  <text x="380" y="350" font-family="Baloo 2" font-weight="800" font-size="150"
        fill="#ff4d6d" stroke="#221a33" stroke-width="9" paint-order="stroke" stroke-linejoin="round">superjam</text>

  <!-- tagline -->
  <text x="600" y="470" text-anchor="middle" font-family="Baloo 2" font-weight="700" font-size="46" fill="#221a33">make a jam. share the jam.</text>
</svg>