<svg xmlns="http://www.w3.org/2000/svg" width="1200" height="630" viewBox="0 0 1200 630">
  <rect width="1200" height="630" fill="#fff4e3"/>

  
  <g transform="rotate(-10 120 120)">
    <rect x="70" y="78" width="100" height="100" rx="28.000000000000004" fill="#221a33"/>
    <rect x="70" y="70" width="100" height="100" rx="28.000000000000004" fill="#2fd180" stroke="#221a33" stroke-width="7"/>
    <path d="M90,80 L166,120 L90,160 Z" fill="#ffffff"/>
  </g>
  
  <g transform="rotate(9 1078 112)">
    <rect x="1030" y="72" width="96" height="96" rx="26.880000000000003" fill="#221a33"/>
    <rect x="1030" y="64" width="96" height="96" rx="26.880000000000003" fill="#c9b6ff" stroke="#221a33" stroke-width="7"/>
    <path d="M1078,151.744 C991.6,92.128 1052.08,44.435199999999995 1078,96.10239999999999 C1103.92,44.435199999999995 1164.4,92.128 1078,151.744 Z" fill="#ff4d6d"/>
  </g>
  
  <g transform="rotate(8 128 490)">
    <rect x="78" y="448" width="100" height="100" rx="28.000000000000004" fill="#221a33"/>
    <rect x="78" y="440" width="100" height="100" rx="28.000000000000004" fill="#4d7cff" stroke="#221a33" stroke-width="7"/>
    <path d="M128.00,456.00L136.82,477.86L160.34,479.49L142.27,494.64L147.98,517.51L128.00,505.00L108.02,517.51L113.73,494.64L95.66,479.49L119.18,477.86Z" fill="#ffffff"/>
  </g>
  
  <g transform="rotate(-8 1080 500)">
    <rect x="1028" y="456" width="104" height="104" rx="29.120000000000005" fill="#221a33"/>
    <rect x="1028" y="448" width="104" height="104" rx="29.120000000000005" fill="#ffc940" stroke="#221a33" stroke-width="7"/>
    <circle cx="1080" cy="500" r="31.2" fill="none" stroke="#221a33" stroke-width="10.4"/><circle cx="1080" cy="500" r="10.4" fill="#221a33"/>
  </g>
  <path d="M562.00,75.00L566.88,93.12L585.00,98.00L566.88,102.88L562.00,121.00L557.12,102.88L539.00,98.00L557.12,93.12Z" fill="#221a33"/>
  <path d="M1148.00,273.00L1152.45,289.55L1169.00,294.00L1152.45,298.45L1148.00,315.00L1143.55,298.45L1127.00,294.00L1143.55,289.55Z" fill="#4d7cff"/>
  <path d="M296.00,402.00L299.82,416.18L314.00,420.00L299.82,423.82L296.00,438.00L292.18,423.82L278.00,420.00L292.18,416.18Z" fill="#ff4d6d"/>
  <path d="M934.00,401.00L938.03,415.97L953.00,420.00L938.03,424.03L934.00,439.00L929.97,424.03L915.00,420.00L929.97,415.97Z" fill="#2fd180"/>

  <!-- lightning token tile -->
  <rect x="196" y="234" width="150" height="150" rx="42" fill="#221a33"/>
  <rect x="196" y="225" width="150" height="150" rx="42" fill="#ffc940" stroke="#221a33" stroke-width="11"/>
  <path d="M286.0,249.0L247.0,306.0L271.0,306.0L256.0,351.0L295.0,294.0L271.0,294.0Z" fill="#221a33" stroke="#221a33" stroke-width="9" stroke-linejoin="round"/>

  <!-- wordmark -->
  <text x="380" y="360" font-family="Baloo 2" font-weight="800" font-size="150" fill="#221a33">superjam</text>
  <text x="380" y="350" font-family="Baloo 2" font-weight="800" font-size="150"
        fill="#ff4d6d" stroke="#221a33" stroke-width="9" paint-order="stroke" stroke-linejoin="round">superjam</text>

  <!-- tagline -->
  <text x="600" y="470" text-anchor="middle" font-family="Baloo 2" font-weight="700" font-size="46" fill="#221a33">make a jam. share the jam.</text>
</svg>